<?xml version="1.0" encoding="iso-8859-1"?>
<!-- Generator: Adobe Illustrator 19.0.0, SVG Export Plug-In . SVG Version: 6.00 Build 0)  -->
<svg version="1.1" id="Capa_1" xmlns="http://www.w3.org/2000/svg" xmlns:xlink="http://www.w3.org/1999/xlink" x="0px" y="0px"
	 viewBox="0 0 512 512" style="enable-background:new 0 0 512 512;" xml:space="preserve">
<path style="fill:#E6E3E2;" d="M456,144H56c-4.418,0-8,3.582-8,8v272c0,4.418,3.582,8,8,8h400c4.418,0,8-3.582,8-8V152
	C464,147.582,460.418,144,456,144z"/>
<g>
	<path style="fill:#DAD5D4;" d="M56,144c-4.418,0-8,3.582-8,8v272c0,4.418,3.582,8,8,8h94l288-288H56z"/>
	<polygon style="fill:#DAD5D4;" points="282,432 350.667,432 464,318.667 464,250 	"/>
	<path style="fill:#DAD5D4;" d="M380.667,432H456c4.418,0,8-3.582,8-8v-75.333L380.667,432z"/>
</g>
<path style="fill:#9B8E8B;" d="M504,416H8c-4.418,0-8,3.582-8,8v8c0,22.056,17.944,40,40,40h432c22.056,0,40-17.944,40-40v-8
	C512,419.582,508.418,416,504,416z"/>
<path style="fill:#8F807D;" d="M24,432v-8c0-4.418,3.582-8,8-8H8c-4.418,0-8,3.582-8,8v8c0,22.056,17.944,40,40,40h24
	C41.944,472,24,454.056,24,432z"/>
<path style="fill:#A89C9A;" d="M456,144H56c-4.418,0-8,3.582-8,8v40h416v-40C464,147.582,460.418,144,456,144z"/>
<g>
	<path style="fill:#82716F;" d="M257,176h-1c-4.418,0-8-3.582-8-8s3.582-8,8-8h1c4.418,0,8,3.582,8,8S261.418,176,257,176z"/>
	<path style="fill:#82716F;" d="M296,416h-80v24c0,4.418,3.582,8,8,8h64c4.418,0,8-3.582,8-8V416z"/>
</g>
<path style="fill:#FFC44F;" d="M362.931,236.275C344.953,223.201,321.184,216,296,216s-48.953,7.201-66.931,20.275
	C210.323,249.908,200,268.278,200,288c0,21.469,12.756,41.768,34.452,55.345L224.41,373.47c-2.201,6.608,4.913,12.812,11.168,9.685
	l47.588-23.794C287.421,359.786,291.728,360,296,360c25.184,0,48.953-7.201,66.931-20.275C381.677,326.092,392,307.722,392,288
	S381.677,249.908,362.931,236.275z"/>
<g>
	<path style="fill:#FFB357;" d="M240.41,373.47l10.042-30.125C228.756,329.768,216,309.469,216,288
		c0-19.722,10.323-38.092,29.069-51.725c16.06-11.68,36.747-18.655,58.931-20.014c-2.648-0.162-5.314-0.261-8-0.261
		c-25.184,0-48.953,7.201-66.931,20.275C210.323,249.908,200,268.278,200,288c0,21.469,12.756,41.768,34.452,55.345L224.41,373.47
		c-2.201,6.608,4.913,12.812,11.168,9.685l5.759-2.88C240.073,378.38,239.583,375.954,240.41,373.47z"/>
	<path style="fill:#FFB357;" d="M303.973,359.74c-1.606-0.1-3.211-0.22-4.807-0.379l-1.207,0.604
		C299.974,359.935,301.98,359.862,303.973,359.74z"/>
</g>
<g>
	<path style="fill:#FFD791;" d="M320,280h-48c-4.418,0-8-3.582-8-8s3.582-8,8-8h48c4.418,0,8,3.582,8,8S324.418,280,320,280z"/>
	<path style="fill:#FFD791;" d="M336,312h-80c-4.418,0-8-3.582-8-8s3.582-8,8-8h80c4.418,0,8,3.582,8,8S340.418,312,336,312z"/>
</g>
<g>
	<path style="fill:#9CC445;" d="M305.076,110.928c-2.285,0-4.554-0.974-6.136-2.862C288.255,95.314,272.604,88,256,88
		s-32.255,7.314-42.94,20.066c-2.838,3.387-7.884,3.831-11.27,0.994c-3.387-2.837-3.832-7.883-0.994-11.27
		C214.528,81.4,234.65,72,256,72s41.472,9.4,55.204,25.79C315.472,102.883,311.761,110.928,305.076,110.928z"/>
	<path style="fill:#9CC445;" d="M327.763,88.24c-2.206,0-4.4-0.906-5.981-2.684C305.081,66.772,281.104,56,256,56
		s-49.081,10.772-65.781,29.556c-2.938,3.301-7.994,3.598-11.294,0.663c-3.302-2.936-3.599-7.992-0.663-11.294
		C197.996,52.729,226.33,40,256,40s58.004,12.729,77.738,34.924C338.222,79.967,334.55,88.24,327.763,88.24z"/>
	<path style="fill:#9CC445;" d="M282.274,133.733c-2.528,0-5.016-1.195-6.571-3.427C271.208,123.853,263.842,120,256,120
		s-15.208,3.853-19.703,10.306c-2.527,3.625-7.513,4.516-11.138,1.991c-3.625-2.526-4.517-7.512-1.991-11.137
		C230.654,110.415,242.928,104,256,104c13.072,0,25.346,6.415,32.832,17.159C292.446,126.347,288.642,133.733,282.274,133.733z"/>
</g>
<g>
</g>
<g>
</g>
<g>
</g>
<g>
</g>
<g>
</g>
<g>
</g>
<g>
</g>
<g>
</g>
<g>
</g>
<g>
</g>
<g>
</g>
<g>
</g>
<g>
</g>
<g>
</g>
<g>
</g>
</svg>
