<svg height="496pt" viewBox="0 0 496 496" width="496pt" xmlns="http://www.w3.org/2000/svg"><path d="m496 248c0 137.007812-110.984375 248-248 248s-248-110.992188-248-248c0-137.015625 110.984375-248 248-248s248 110.984375 248 248zm0 0" fill="#ffe6a9"/><path d="m456 248c0 114.824219-93.105469 208-208 208s-208-93.175781-208-208c0-114.816406 93.105469-208 208-208s208 93.183594 208 208zm0 0" fill="#ffda7e"/><path d="m416 248c0 92.710938-75.175781 168-168 168s-168-75.289062-168-168c0-92.703125 75.175781-168 168-168s168 75.296875 168 168zm0 0" fill="#ffce54"/><path d="m316 444-16 16h-104l-16-16v-56h136zm0 0" fill="#ccd1d9"/><path d="m380 248c0-72.902344-59.105469-132-132-132s-132 59.097656-132 132c0 48 25.695312 89.871094 64 112.984375v27.015625h136v-27.015625c38.304688-23.113281 64-64.984375 64-112.984375zm0 0" fill="#e6e9ed"/><path d="m212 460s8 16 36 16 36-16 36-16zm0 0" fill="#656d78"/><path d="m176 416c-2.113281 0-3.871094-1.65625-3.992188-3.785156-.128906-2.199219 1.558594-4.09375 3.777344-4.214844l143.992188-8c2.125-.199219 4.085937 1.574219 4.207031 3.785156.121094 2.207032-1.558594 4.09375-3.777344 4.199219l-143.992187 8c-.0625.015625-.144532.015625-.214844.015625zm0 0" fill="#e6e9ed"/><path d="m176 440c-2.113281 0-3.871094-1.65625-3.992188-3.785156-.128906-2.199219 1.558594-4.09375 3.777344-4.214844l143.992188-8c2.125-.230469 4.085937 1.574219 4.207031 3.785156.121094 2.207032-1.558594 4.09375-3.777344 4.199219l-143.992187 8c-.0625.015625-.144532.015625-.214844.015625zm0 0" fill="#e6e9ed"/><path d="m312 212c8.878906 0 16 7.128906 16 16s-7.121094 16-16 16c6.640625 0 12 5.359375 12 12 0 4.960938-2.960938 9.128906-7.199219 11.039062 5.597657 10.640626 3.917969 23.921876-4.953125 32.808594-6.640625 6.550782-15.601562 9.191406-24.167968 7.832032h-.078126c-.640624 3.832031-2.488281 7.519531-5.449218 10.480468-7.832032 7.839844-20.480469 7.839844-28.3125 0-3.761719-3.839844-5.761719-8.800781-5.839844-13.839844v-124.320312c0-8.871094 7.121094-16 16-16s16 7.128906 16 16c0 2.230469-.480469 4.320312-1.28125 6.230469 3.519531-3.109375 8.167969-4.949219 13.28125-4.949219 11.121094 0 20 8.871094 20 20 0 4.078125-1.199219 7.917969-3.359375 11.039062 1.121094-.160156 2.238281-.320312 3.359375-.320312zm0 0" fill="#ec87c0"/><path d="m248 268v36.320312c-.078125 5.039063-2 10-5.839844 13.832032-7.832031 7.839844-20.480468 7.839844-28.3125 0-2.960937-2.953125-4.808594-6.640625-5.449218-10.480469h-.078126c-8.480468 1.359375-17.519531-1.28125-24.082031-7.832031-8.878906-8.878906-10.558593-22.167969-5.039062-32.808594-4.238281-1.910156-7.199219-6.078125-7.199219-11.039062 0-6.640626 5.359375-12 12-12-8.878906 0-16-7.128907-16-16 0-8.871094 7.121094-16 16-16 1.199219 0 2.320312.160156 3.359375.320312-2.160156-3.113281-3.359375-6.953125-3.359375-11.03125 0-11.128906 8.960938-20 20-20 5.121094 0 9.761719 1.839844 13.28125 4.949219-.800781-1.910157-1.28125-4-1.28125-6.230469 0-8.871094 7.121094-16 16-16s16 7.128906 16 16zm0 0" fill="#ec87c0"/><path d="m328 256c0-4.472656-1.855469-8.511719-4.832031-11.425781 5.320312-3.589844 8.832031-9.679688 8.832031-16.574219 0-10.015625-7.414062-18.246094-17.03125-19.703125.679688-2.234375 1.03125-4.59375 1.03125-7.015625 0-13.234375-10.769531-24-24-24-2.816406 0-5.542969.503906-8.136719 1.421875-.679687-10.414063-9.277343-18.703125-19.863281-18.703125-6.566406 0-12.351562 3.214844-16 8.121094-3.648438-4.90625-9.433594-8.121094-16-8.121094-10.585938 0-19.183594 8.289062-19.863281 18.703125-2.585938-.910156-5.320313-1.421875-8.136719-1.421875-13.230469 0-24 10.765625-24 24 0 2.429688.351562 4.789062 1.03125 7.015625-9.617188 1.457031-17.03125 9.6875-17.03125 19.703125 0 6.894531 3.503906 12.984375 8.832031 16.574219-2.976562 2.914062-4.832031 6.953125-4.832031 11.425781 0 4.976562 2.390625 9.542969 6.230469 12.566406-4.503907 11.753906-1.871094 25.050782 7.175781 34.105469 6.027344 6.023437 14.195312 9.351563 22.5625 9.351563.464844 0 .917969-.085938 1.375-.113282 1.152344 3.386719 3.0625 6.480469 5.664062 9.074219 4.542969 4.542969 10.578126 7.054687 16.984376 7.054687s12.441406-2.503906 16.984374-7.054687c1.152344-1.144531 2.152344-2.398437 3.023438-3.71875.871094 1.308594 1.871094 2.558594 3.007812 3.71875 4.542969 4.542969 10.578126 7.054687 16.984376 7.054687s12.441406-2.503906 16.984374-7.046874c2.617188-2.617188 4.542969-5.726563 5.679688-9.082032.496094.027344.992188.121094 1.480469.121094 8.367187 0 16.367187-3.269531 22.527343-9.359375 9.105469-9.113281 11.695313-22.464844 7.121094-34.121094 3.832032-3.023437 6.214844-7.582031 6.214844-12.550781zm-111.328125 59.320312c-2.3125-2.296874-3.808594-5.167968-4.351563-8.449218-1.054687-5.117188.566407-10.429688 4.351563-14.199219 1.558594-1.550781 1.558594-4.097656 0-5.65625s-4.097656-1.558594-5.65625 0c-4.574219 4.578125-6.925781 10.671875-6.902344 16.847656-6.34375.046875-12.488281-2.296875-17.042969-6.847656-7.453124-7.457031-9.183593-18.757813-4.308593-28.152344 1.117187-2.167969 2.558593-4.144531 4.308593-5.878906 9.34375-9.320313 24.570313-9.304687 33.945313.078125 1.558594 1.5625 4.097656 1.5625 5.65625 0 1.558594-1.558594 1.558594-4.09375 0-5.65625-12.496094-12.476562-32.792969-12.519531-45.246094-.085938-1.234375 1.222657-2.335937 2.550782-3.347656 3.953126-1.277344-1.441407-2.078125-3.257813-2.078125-5.273438 0-4.414062 3.585938-8 8-8 2.207031 0 4-1.792969 4-4s-1.792969-4-4-4c-6.617188 0-12-5.382812-12-12s5.382812-12 12-12c.503906 0 .929688.089844 1.398438.144531 4.511718 5.679688 11.25 9.144531 18.601562 9.144531 2.207031 0 4-1.792968 4-4 0-2.210937-1.792969-4-4-4-5.382812 0-10.351562-2.679687-13.351562-7.234374-1.738282-2.503907-2.648438-5.535157-2.648438-8.765626 0-8.824218 7.175781-16 16-16 3.839844 0 7.496094 1.34375 10.335938 3.734376 3.367187 6.65625 10.070312 10.976562 17.664062 10.976562 2.207031 0 4-1.792969 4-4s-1.792969-4-4-4c-4.847656 0-9.175781-2.863281-11.03125-7.3125-.640625-1.527344-.96875-3.113281-.96875-4.6875 0-6.617188 5.382812-12 12-12s12 5.382812 12 12v32c0 .496094-.175781 12-16 12-2.207031 0-4 1.792969-4 4s1.792969 4 4 4c7.167969 0 12.335938-1.863281 16-4.558594v39.46875c-1 1.53125-3.761719 5.089844-8 5.089844-2.207031 0-4 1.792969-4 4s1.792969 4 4 4c3.183594 0 5.816406-.976562 8-2.273438v26.53125c-.0625 4.191407-1.726562 8.125-4.671875 11.070313-6.082031 6.078125-16.574219 6.085937-22.65625-.007813zm92.359375-18.320312c-4.6875 4.617188-10.816406 6.9375-17.152344 6.871094.023438-6.230469-2.335937-12.304688-6.894531-16.855469-1.558594-1.558594-4.097656-1.558594-5.65625 0s-1.558594 4.105469 0 5.65625c3.785156 3.777344 5.40625 9.089844 4.328125 14.351563-.519531 3.136718-2.015625 6-4.328125 8.304687-6.082031 6.078125-16.601563 6.054687-22.632813.023437-2.960937-3.015624-4.632812-6.960937-4.695312-11.09375v-26.53125c2.183594 1.296876 4.816406 2.273438 8 2.273438 2.207031 0 4-1.792969 4-4s-1.792969-4-4-4c-4.257812 0-7.015625-3.574219-8-5.113281v-39.445313c3.664062 2.695313 8.832031 4.558594 16 4.558594 2.207031 0 4-1.792969 4-4s-1.792969-4-4-4c-15.304688 0-15.976562-10.761719-16-12.03125v-31.96875c0-6.617188 5.382812-12 12-12s12 5.382812 12 12c0 1.574219-.328125 3.160156-.976562 4.695312-1.847657 4.441407-6.175782 7.304688-11.023438 7.304688-2.207031 0-4 1.792969-4 4s1.792969 4 4 4c7.59375 0 14.296875-4.320312 17.65625-10.976562 2.847656-2.398438 6.503906-3.742188 10.34375-3.742188 8.96875 0 16 7.03125 16 16 0 3.222656-.910156 6.253906-2.703125 8.839844-2.945313 4.480468-7.914063 7.160156-13.296875 7.160156-2.207031 0-4 1.789062-4 4 0 2.207031 1.792969 4 4 4 7.382812 0 14.144531-3.480469 18.609375-9.144531.460937-.046875.925781-.136719 1.390625-.136719 6.617188 0 12 5.382812 12 12s-5.382812 12-12 12c-2.207031 0-4 1.792969-4 4s1.792969 4 4 4c4.414062 0 8 3.585938 8 8 0 1.984375-.785156 3.785156-2.03125 5.214844-.96875-1.359375-2.066406-2.664063-3.296875-3.886719-12.457031-12.457031-32.761719-12.40625-45.257813.078125-1.558593 1.5625-1.558593 4.097656 0 5.65625 1.5625 1.5625 4.097657 1.5625 5.65625 0 9.371094-9.375 24.59375-9.414062 33.945313-.078125 1.777344 1.777344 3.175781 3.726563 4.242187 5.917969 4.917969 9.34375 3.222657 20.640625-4.226562 28.097656zm0 0" fill="#d770ad"/></svg>