<svg height="508pt" viewBox="-2 0 508 508.032" width="508pt" xmlns="http://www.w3.org/2000/svg"><g fill="#ccd1d9"><path d="m497.867188 247.988281-28.066407 28.058594-48.964843-48.976563 28.066406-28.058593zm0 0"/><path d="m76.902344 222.226562-47.460938 47.472657-22.488281-22.484375 47.457031-47.472656zm0 0"/><path d="m88.0625 191.984375h-16c-13.199219 0-24 10.800781-24 24v184c0 13.199219 10.800781 24 24 24h16zm0 0"/><path d="m415.96875 423.984375h16c13.199219 0 24-10.800781 24-24l.007812-184c0-13.199219-10.808593-24-24.007812-24h-16zm0 0"/></g><path d="m88.0625 191.984375-48.046875 48.046875h424l-48.046875-48.046875zm0 0" fill="#8cc152"/><path d="m96.015625 224.03125h312l-16-16h-280zm0 0" fill="#656d78"/><path d="m384.015625 224.03125h-264v-224.03125h208l56.007813 56.015625zm0 0" fill="#e6e9ed"/><path d="m328.015625 0v56.03125h56.007813zm0 0" fill="#f5f7fa"/><path d="m80.015625 392.03125h344.007813v40h-344.007813zm0 0" fill="#656d78"/><path d="m480.023438 240.03125h-456.007813c-13.199219 0-24 10.800781-24 24v184c0 13.199219 10.800781 24 24 24h456.007813c13.199218 0 23.992187-10.800781 23.992187-24v-184c0-13.199219-10.792969-24-23.992187-24zm0 0" fill="#a0d468"/><path d="m40.015625 240.03125h-16c-13.199219 0-24 10.800781-24 24v184c0 13.199219 10.800781 24 24 24h16zm0 0" fill="#e6e9ed"/><path d="m464.015625 472.03125h16.007813c13.199218 0 23.992187-10.800781 23.992187-24v-184c0-13.199219-10.792969-24-23.992187-24h-16.007813zm0 0" fill="#e6e9ed"/><path d="m424.265625 292.03125c-2.210937 0-4.042969-1.792969-4.042969-4s1.753906-4 3.953125-4h.089844c2.199219 0 4 1.792969 4 4s-1.792969 4-4 4zm0 0" fill="#8cc152"/><path d="m400.257812 292.03125c-2.210937 0-4.042968-1.792969-4.042968-4s1.753906-4 3.953125-4h.089843c2.199219 0 4 1.792969 4 4s-1.792968 4-4 4zm0 0" fill="#8cc152"/><path d="m376.257812 292.03125c-2.210937 0-4.042968-1.792969-4.042968-4s1.753906-4 3.953125-4h.089843c2.199219 0 4 1.792969 4 4s-1.792968 4-4 4zm0 0" fill="#8cc152"/><path d="m336 108.03125h-167.960938c-2.222656 0-4.007812-1.785156-4-4-.007812-2.214844 1.785157-4 4-4h167.960938c2.214844 0 4 1.785156 4 4s-1.785156 4-4 4zm0 0" fill="#ccd1d9"/><path d="m336 140.03125h-167.96875c-2.207031 0-4-1.785156-4-4 0-2.199219 1.792969-4 4-4h167.96875c2.207031 0 4 1.800781 4 4 0 2.214844-1.792969 4-4 4zm0 0" fill="#ccd1d9"/><path d="m336 172.03125h-167.96875c-2.207031 0-4-1.800781-4-4s1.792969-4 4-4h167.96875c2.207031 0 4 1.800781 4 4s-1.792969 4-4 4zm0 0" fill="#ccd1d9"/><path d="m423.992188 424.03125-.105469-24c-.015625-4.398438-3.628907-8-8.03125-8h-327.839844c-4.398437 0-8 3.601562-8 8v32h344.007813v-8zm0 0" fill="#f5f7fa"/><path d="m80.015625 432.03125h344.007813v40h-344.007813zm0 0" fill="#656d78"/><path d="m394.015625 432.03125h-283.671875l-22.328125 56h328zm0 0" fill="#e6e9ed"/><path d="m88.015625 488.03125h328.007813v16h-328.007813zm0 0" fill="#ccd1d9"/><path d="m88.015625 492.03125h328.007813v4h-328.007813zm0 0" fill="#e6e9ed"/><path d="m280.015625 500.03125c0 2.199219-1.800781 4-4 4h-48c-2.199219 0-4-1.800781-4-4v-16.007812c0-2.199219 1.800781-4 4-4h48c2.199219 0 4 1.800781 4 4zm0 0" fill="#545c66"/><path d="m416.023438 508.03125h-328.007813c-2.207031 0-4-1.792969-4-4s1.792969-4 4-4h328.007813c2.207031 0 4 1.792969 4 4s-1.792969 4-4 4zm0 0" fill="#656d78"/><path d="m264.015625 420.03125h-24c-2.207031 0-4-1.792969-4-4s1.792969-4 4-4h24c2.207031 0 4 1.792969 4 4s-1.792969 4-4 4zm0 0" fill="#ccd1d9"/></svg>