<svg height="496pt" viewBox="0 -56 496 496" width="496pt" xmlns="http://www.w3.org/2000/svg"><path d="m496 288c0 8.800781-7.199219 16-16 16h-200c-8.800781 0-16-7.199219-16-16v-144c0-8.800781 7.199219-16 16-16h200c8.800781 0 16 7.199219 16 16zm0 0" fill="#a0d468"/><path d="m32 104v208h-16c-8.871094 0-16-7.128906-16-16v-176c0-8.871094 7.128906-16 16-16zm0 0" fill="#656d78"/><path d="m176 328c0 17.671875-14.328125 32-32 32s-32-14.328125-32-32 14.328125-32 32-32 32 14.328125 32 32zm0 0" fill="#ccd1d9"/><path d="m64 112.078125c0-44.230469 35.839844-80 80-80s80 35.769531 80 80c0 44.160156-35.839844 80-80 80s-80-35.847656-80-80zm16-.078125c0 35.359375 28.640625 64 64 64s64-28.640625 64-64-28.640625-64-64-64-64 28.640625-64 64zm0 0" fill="#e6e9ed"/><path d="m104 112.078125c0 22.082031 17.921875 40 40 40s40-17.917969 40-40c0-22.078125-17.921875-40-40-40s-40 17.921875-40 40zm40 63.921875c-35.359375 0-64-28.640625-64-64s28.640625-64 64-64 64 28.640625 64 64-28.640625 64-64 64zm0 0" fill="#656d78"/><path d="m184 112.078125c0 22.09375-17.910156 40-40 40s-40-17.90625-40-40c0-22.089844 17.910156-40 40-40s40 17.910156 40 40zm0 0" fill="#5d9cec"/><path d="m120 112.078125c0-19.34375 13.753906-35.484375 32-39.183594-2.574219-.527343-5.246094-.816406-8-.816406-22.078125 0-40 17.921875-40 40 0 22.082031 17.921875 40 40 40 2.753906 0 5.425781-.277344 8-.8125-18.246094-3.707031-32-19.839844-32-39.1875zm0 0" fill="#87bcf4"/><path d="m144 360c17.6875 0 32-14.328125 32-32 0-17.6875-14.3125-32-32-32-17.671875 0-32 14.3125-32 32 0 17.671875 14.328125 32 32 32zm-64-360h144c17.6875 0 32 14.3125 32 32v336c0 8.871094-7.199219 16-16 16h-192c-8.871094 0-16-7.128906-16-16v-336c0-17.6875 14.328125-32 32-32zm144 112.078125c0-44.230469-35.839844-80-80-80s-80 35.769531-80 80c0 44.160156 35.839844 80 80 80s80-35.847656 80-80zm0 0" fill="#a0d468"/><g fill="#8cc152"><path d="m48.246094 236c-2.214844 0-4.046875-1.792969-4.046875-4s1.753906-4 3.953125-4h.09375c2.203125 0 4 1.792969 4 4s-1.789063 4-4 4zm0 0"/><path d="m64.246094 252c-2.214844 0-4.046875-1.792969-4.046875-4s1.753906-4 3.953125-4h.09375c2.203125 0 4 1.792969 4 4s-1.789063 4-4 4zm0 0"/><path d="m80.246094 268c-2.214844 0-4.046875-1.792969-4.046875-4s1.753906-4 3.953125-4h.09375c2.203125 0 4 1.792969 4 4s-1.789063 4-4 4zm0 0"/><path d="m48.246094 268c-2.214844 0-4.046875-1.792969-4.046875-4s1.753906-4 3.953125-4h.09375c2.203125 0 4 1.792969 4 4s-1.789063 4-4 4zm0 0"/><path d="m80.246094 236c-2.214844 0-4.046875-1.792969-4.046875-4s1.753906-4 3.953125-4h.09375c2.203125 0 4 1.792969 4 4s-1.789063 4-4 4zm0 0"/><path d="m96.246094 252c-2.214844 0-4.046875-1.792969-4.046875-4s1.753906-4 3.953125-4h.09375c2.203125 0 4 1.792969 4 4s-1.789063 4-4 4zm0 0"/><path d="m112.246094 268c-2.214844 0-4.046875-1.792969-4.046875-4s1.753906-4 3.953125-4h.09375c2.203125 0 4 1.792969 4 4s-1.789063 4-4 4zm0 0"/><path d="m112.246094 236c-2.214844 0-4.046875-1.792969-4.046875-4s1.753906-4 3.953125-4h.09375c2.203125 0 4 1.792969 4 4s-1.789063 4-4 4zm0 0"/><path d="m128.246094 252c-2.214844 0-4.046875-1.792969-4.046875-4s1.753906-4 3.953125-4h.09375c2.203125 0 4 1.792969 4 4s-1.789063 4-4 4zm0 0"/><path d="m144.246094 268c-2.214844 0-4.046875-1.792969-4.046875-4s1.753906-4 3.953125-4h.09375c2.203125 0 4 1.792969 4 4s-1.789063 4-4 4zm0 0"/><path d="m144.246094 236c-2.214844 0-4.046875-1.792969-4.046875-4s1.753906-4 3.953125-4h.09375c2.203125 0 4 1.792969 4 4s-1.789063 4-4 4zm0 0"/><path d="m176.246094 236c-2.214844 0-4.046875-1.792969-4.046875-4s1.753906-4 3.953125-4h.09375c2.203125 0 4 1.792969 4 4s-1.789063 4-4 4zm0 0"/><path d="m160.246094 252c-2.214844 0-4.046875-1.792969-4.046875-4s1.753906-4 3.953125-4h.09375c2.203125 0 4 1.792969 4 4s-1.789063 4-4 4zm0 0"/><path d="m176.246094 268c-2.214844 0-4.046875-1.792969-4.046875-4s1.753906-4 3.953125-4h.09375c2.203125 0 4 1.792969 4 4s-1.789063 4-4 4zm0 0"/><path d="m208.246094 236c-2.214844 0-4.046875-1.792969-4.046875-4s1.753906-4 3.953125-4h.09375c2.203125 0 4 1.792969 4 4s-1.789063 4-4 4zm0 0"/><path d="m240.246094 236c-2.214844 0-4.046875-1.792969-4.046875-4s1.753906-4 3.953125-4h.09375c2.203125 0 4 1.792969 4 4s-1.789063 4-4 4zm0 0"/><path d="m192.246094 252c-2.214844 0-4.046875-1.792969-4.046875-4s1.753906-4 3.953125-4h.09375c2.203125 0 4 1.792969 4 4s-1.789063 4-4 4zm0 0"/><path d="m208.246094 268c-2.214844 0-4.046875-1.792969-4.046875-4s1.753906-4 3.953125-4h.09375c2.203125 0 4 1.792969 4 4s-1.789063 4-4 4zm0 0"/><path d="m208.246094 268c-2.214844 0-4.046875-1.792969-4.046875-4s1.753906-4 3.953125-4h.09375c2.203125 0 4 1.792969 4 4s-1.789063 4-4 4zm0 0"/><path d="m240.246094 268c-2.214844 0-4.046875-1.792969-4.046875-4s1.753906-4 3.953125-4h.09375c2.203125 0 4 1.792969 4 4s-1.789063 4-4 4zm0 0"/><path d="m224.246094 252c-2.214844 0-4.046875-1.792969-4.046875-4s1.753906-4 3.953125-4h.09375c2.203125 0 4 1.792969 4 4s-1.789063 4-4 4zm0 0"/><path d="m496 248-16-8v-48l16-8zm0 0"/></g><path d="m256 160h8v120h-8zm0 0" fill="#656d78"/><path d="m232 312c0 2.199219-1.800781 4-4 4h-24c-2.199219 0-4-1.800781-4-4v-4c0-2.199219 1.800781-4 4-4h24c2.199219 0 4 1.800781 4 4zm0 0" fill="#656d78"/><path d="m228 304h-24c-2.199219 0-4 1.800781-4 4h32c0-2.199219-1.800781-4-4-4zm0 0" fill="#545c66"/><path d="m232 344c0 2.199219-1.800781 4-4 4h-24c-2.199219 0-4-1.800781-4-4v-4c0-2.199219 1.800781-4 4-4h24c2.199219 0 4 1.800781 4 4zm0 0" fill="#656d78"/><path d="m228 336h-24c-2.199219 0-4 1.800781-4 4h32c0-2.199219-1.800781-4-4-4zm0 0" fill="#545c66"/><path d="m88 312c0 2.199219-1.800781 4-4 4h-24c-2.199219 0-4-1.800781-4-4v-4c0-2.199219 1.800781-4 4-4h24c2.199219 0 4 1.800781 4 4zm0 0" fill="#656d78"/><path d="m84 304h-24c-2.199219 0-4 1.800781-4 4h32c0-2.199219-1.800781-4-4-4zm0 0" fill="#545c66"/><path d="m88 344c0 2.199219-1.800781 4-4 4h-24c-2.199219 0-4-1.800781-4-4v-4c0-2.199219 1.800781-4 4-4h24c2.199219 0 4 1.800781 4 4zm0 0" fill="#656d78"/><path d="m84 336h-24c-2.199219 0-4 1.800781-4 4h32c0-2.199219-1.800781-4-4-4zm0 0" fill="#545c66"/><path d="m0 148h8c2.214844 0 4-1.792969 4-4s-1.785156-4-4-4h-8zm0 0" fill="#545c66"/><path d="m0 180h8c2.214844 0 4-1.792969 4-4s-1.785156-4-4-4h-8zm0 0" fill="#545c66"/><path d="m0 212h8c2.214844 0 4-1.792969 4-4s-1.785156-4-4-4h-8zm0 0" fill="#545c66"/><path d="m0 244h8c2.214844 0 4-1.792969 4-4s-1.785156-4-4-4h-8zm0 0" fill="#545c66"/><path d="m0 276h8c2.214844 0 4-1.792969 4-4s-1.785156-4-4-4h-8zm0 0" fill="#545c66"/><path d="m464 283.992188h-168c-2.214844 0-4-1.792969-4-4 0-2.207032 1.785156-4 4-4h168c2.199219 0 4 1.792968 4 4 0 2.207031-1.800781 4-4 4zm0 0" fill="#8cc152"/><path d="m464 156.007812h-168c-2.214844 0-4-1.792968-4-4 0-2.207031 1.785156-4 4-4h168c2.199219 0 4 1.792969 4 4 0 2.207032-1.800781 4-4 4zm0 0" fill="#8cc152"/><path d="m160 332h-32c-2.199219 0-4-1.792969-4-4s1.800781-4 4-4h32c2.214844 0 4 1.792969 4 4s-1.785156 4-4 4zm0 0" fill="#aab2bd"/></svg>